<svg id="Layer_1" data-name="Layer 1" xmlns="http://www.w3.org/2000/svg" viewBox="0 0 1579 789"><defs><style>.cls-1{fill:#00aeef;}.cls-2{fill:#231f20;}.cls-3{fill:none;}</style></defs><title>LOGO_dtac_140163</title><path class="cls-1" d="M418.55,299.75c7.55,1.16,9.07-.37,10.07-7.52a171.75,171.75,0,0,1,14.66-48.18c9.88-20.34,25.6-42.68,47.59-57.65,18.53-12.44,48.89-26.22,72.39-31.22a175.66,175.66,0,0,1,52.71-3.5c31.76,2.86,49.34,11.94,58.16,23.67,3.27,4.39,5.06,9.8,5.13,13.3.25,5.84-2.29,13.47-10.67,20.95-8.15,7.2-25.53,16.32-49.24,24.31-24.61,8.2-58.23,16.87-91.75,24.59A521.91,521.91,0,0,0,470.22,275c-22.18,7.53-29.56,28.55-15,36.39a271.16,271.16,0,0,1,43.12,28.64c16,13.12,34.52,28.56,57.54,56.4,20.87,25.54,55,74.27,67.28,121.58,13.6,51.93,5.1,101.18-24.23,114.94-28.75,13.5-67.07-6-94-33.94-25.59-26.52-43.45-57.76-60.25-105.95-14.56-41.42-20.47-101.48-20.44-132.91,0-10.46-.17-12.7.25-22.15.73-12.89-30.07-9.64-45,.31-26.85,17.86-53.67,49.15-69.35,67.54-6.82,8-16.06,19.83-25.86,32.21-12.92,16.23-27.18,33.13-40.18,42.58-19.56,14.29-51,20.19-73,4.46-12.23-8.77-18.75-25.31-18.95-42.14a64.1,64.1,0,0,1,8.65-33.12c7.37-13,19.51-26.91,38.76-42.85,19.9-16.39,51.68-34.92,83.51-47.74,48.57-19.59,100.86-25.75,135.51-19.52"/><path class="cls-2" d="M904.36,329.86v-110c0-2.37,7-2.37,10.88-2.37,4.23,0,11,0,11,2.37V520.47c0,2.6-6.81,2.6-11,2.6-3.92,0-10.39,0-10.39-2.6V490.1c-10,17.07-31.6,36.14-66,36.14-46.06,0-77.52-26.77-77.52-79.15V376.17c0-52.37,31.46-79.22,76.57-79.22,34.39,0,56.71,15.85,66.43,32.91m0,120.93v-76c0-36.5-27.14-58.42-62.82-58.42-34.1,0-58,16.69-58,63.35v63.73c0,45.82,25.57,62.5,61.93,62.5,33.28,0,58.85-26,58.85-55.19"/><path class="cls-2" d="M1027,521.35c-30.54,0-41.94-17.88-41.94-41.78V325.73H954.22c-2.7,0-2.7-4.8-2.7-8.84s0-9.33,2.7-9.33h30.85V254.38c0-2.46,6.86-2.46,11-2.46,4,0,11,0,11,2.46v53.18h47.73c2.7,0,2.7,4.4,2.7,9.33s0,8.84-2.7,8.84h-47.73v153c0,17,7.25,23.47,25.11,23.47h22.33c3,0,3.66.86,3.66,9.06,0,8.8-.67,10.08-3.66,10.08H1027"/><path class="cls-2" d="M1226.56,523c-4.2,0-10.78,0-10.78-2.5V496.6c-13.66,12.6-38.76,29.64-70,29.64-43,0-69.52-24.78-69.52-65.33V450.35c0-50.31,43.81-71.83,139.29-58.77V373.67c0-40.23-15.4-56.39-53.13-56.39-19.9,0-42.82,4.49-59.67,13.3-4.86,2.86-12.46-17.35-7.14-19.86,15.33-7.3,42-13.77,67.72-13.77,51.51,0,74.11,27.16,74.11,75.09V520.47c0,2.5-6.93,2.5-10.86,2.5m-11-114c-82.91-11.75-117.26,3.65-117.26,41.86v10.12c0,30.77,23.13,45.52,50.7,45.52,27.1,0,50.7-13.92,66.56-30.16Z"/><path class="cls-2" d="M1275.91,447.09V376.17c0-51.19,31-79.22,81.34-79.22,29.14,0,49.26,9.77,67.19,22.79,5.29,4.06-5.27,20.6-9.26,17.35-5.25-3.65-27.88-20.69-56.37-20.69-39,0-60.78,20.69-60.78,63.35v63.73c0,42.17,21.76,63.21,60.78,63.21,27.87,0,46.6-12.5,57.92-21,4.08-3.22,13.74,12.19,10.21,15.36-13.29,12.63-40.55,25.23-69.69,25.23-50.34,0-81.34-28.4-81.34-79.15"/><path class="cls-3" d="M643.79,151.31H572.88c-51.2,0-79.23-31-79.23-81.34,0-29.14,9.77-49.26,22.79-67.19C520.51-2.51,537.05,8,533.79,12c-3.65,5.25-20.69,27.89-20.69,56.37,0,39,20.69,60.78,63.35,60.78h63.73c42.17,0,63.22-21.76,63.22-60.78,0-27.86-12.51-46.6-21-57.91C679.14,6.4,694.55-3.26,697.72.28,710.35,13.56,722.94,40.83,722.94,70c0,50.34-28.39,81.34-79.15,81.34"/><path class="cls-3" d="M572.81,637.51h70.91c51.19,0,79.22,31,79.22,81.34,0,29.14-9.77,49.27-22.79,67.2-4.06,5.28-20.6-5.27-17.35-9.26,3.66-5.25,20.7-27.88,20.7-56.37,0-39-20.7-60.78-63.35-60.78H576.41c-42.17,0-63.21,21.76-63.21,60.78,0,27.87,12.5,46.6,21,57.92,3.22,4.08-12.19,13.74-15.36,10.21-12.63-13.29-25.23-40.56-25.23-69.7,0-50.33,28.4-81.34,79.16-81.34"/><path class="cls-3" d="M152.2,400.92v70.91c0,51.2-31,79.23-81.34,79.23-29.14,0-49.27-9.77-67.2-22.79-5.28-4.07,5.27-20.61,9.26-17.35,5.25,3.65,27.88,20.69,56.37,20.69,39,0,60.78-20.69,60.78-63.35V404.53c0-42.17-21.76-63.22-60.78-63.22-27.87,0-46.6,12.51-57.92,21.05C7.29,365.57-2.37,350.16,1.17,347c13.28-12.63,40.55-25.22,69.69-25.22,50.33,0,81.34,28.39,81.34,79.15"/><path class="cls-3" d="M1427.4,446.9V376c0-51.19,31-79.22,81.34-79.22,29.14,0,49.26,9.77,67.19,22.79,5.29,4.06-5.26,20.6-9.25,17.35-5.25-3.66-27.89-20.7-56.37-20.7-39,0-60.78,20.7-60.78,63.35V443.3c0,42.17,21.76,63.21,60.78,63.21,27.86,0,46.6-12.5,57.91-21,4.09-3.22,13.75,12.19,10.21,15.36-13.28,12.63-40.55,25.23-69.69,25.23-50.34,0-81.34-28.4-81.34-79.16"/></svg>